Coordinates
version=1
nRows=8
nColumns=40
inDegrees=yes

Units are S.I. units (second, meters, Newtons, ...)
Angles are in degrees.

endheader
time	pelvis_tilt	pelvis_list	pelvis_rotation	pelvis_tx	pelvis_ty	pelvis_tz	hip_flexion_r	hip_adduction_r	hip_rotation_r	knee_angle_r	knee_angle_r_beta	ankle_angle_r	subtalar_angle_r	mtp_angle_r	hip_flexion_l	hip_adduction_l	hip_rotation_l	knee_angle_l	knee_angle_l_beta	ankle_angle_l	subtalar_angle_l	mtp_angle_l	lumbar_extension	lumbar_bending	lumbar_rotation	arm_flex_r	arm_add_r	arm_rot_r	elbow_flex_r	pro_sup_r	wrist_flex_r	wrist_dev_r	arm_flex_l	arm_add_l	arm_rot_l	elbow_flex_l	pro_sup_l	wrist_flex_l	wrist_dev_l
     46.01000000	     -4.19201173	     -2.75902456	     -1.93226890	      1.07310012	      0.93296475	      0.41135900	     30.94009546	     -7.24252025	     -4.51151454	     71.09824723	     71.09824723	     -1.21723974	    -17.08156768	      2.26993917	     15.10569529	     -3.77146952	    -10.61253288	     19.92738127	     19.92738127	     11.03993259	     -9.78703656	     -3.70802351	     -9.50948884	      5.49091626	      0.95819940	     10.03866583	    -12.08358970	     -6.83638910	     58.46028441	     44.08089929	      0.00000000	      0.00000000	      9.69625366	    -10.76151448	      4.06818314	     40.30812981	     44.45365773	      0.00000000	      0.00000000
     46.02164286	     -3.94102053	     -2.72588444	     -2.28144270	      1.07256848	      0.93370645	      0.41058790	     32.04447970	     -7.20503192	     -4.40000756	     69.83761009	     69.83761009	     -1.09429581	    -16.76709755	      1.95869184	     13.82807215	     -3.65012029	    -11.00198508	     19.36853584	     19.36853584	     11.41106889	     -9.58079291	     -3.84860453	     -9.86479988	      5.56011109	      1.55669185	      7.82536861	    -12.47905451	     -6.76446726	     55.16830149	     44.21333367	      0.00000000	      0.00000000	     12.01331660	    -10.98849919	      3.99780569	     41.70547958	     44.52862496	      0.00000000	      0.00000000
     46.03328571	     -3.69932928	     -2.74000316	     -2.57812210	      1.07203674	      0.93440395	      0.40991681	     32.96311752	     -7.11037463	     -4.38975694	     68.27650912	     68.27650912	     -1.27144447	    -16.60412355	      1.15919754	     12.58362962	     -3.61863991	    -11.52321936	     18.84011746	     18.84011746	     11.76249021	     -8.99223127	     -4.21516582	    -10.11450035	      5.64816138	      1.24607235	      7.53445103	    -12.04648662	     -7.17676102	     48.03306277	     44.56905861	      0.00000000	      0.00000000	     13.67879487	    -11.82058917	      4.66167881	     43.49674424	     44.59904079	      0.00000000	      0.00000000
     46.04492857	     -3.44182506	     -2.72784794	     -2.89310737	      1.07149201	      0.93500752	      0.40924232	     33.74514878	     -7.01013890	     -4.35163661	     66.51521166	     66.51521166	     -1.21999135	    -16.33326574	      1.26364698	     11.28680233	     -3.49153380	    -11.91624370	     18.20702886	     18.20702886	     12.15150854	     -8.64337330	     -4.23267050	    -10.54330519	      5.75228589	      1.84433394	      5.42225898	    -12.43569773	     -7.10156182	     45.06667130	     44.68463140	      0.00000000	      0.00000000	     15.84865168	    -12.02427452	      4.48114191	     45.23143202	     44.68148915	      0.00000000	      0.00000000
     46.05657143	     -3.27446666	     -2.73821502	     -3.10602242	      1.07089721	      0.93535711	      0.40863016	     34.43991568	     -6.93566177	     -4.47928509	     64.45552634	     64.45552634	     -1.22310085	    -16.14984278	      1.36979236	     10.18260291	     -3.44315275	    -12.42790932	     17.73699667	     17.73699667	     12.59096971	     -7.92424683	     -4.41673000	    -10.71330986	      5.83346137	      1.29868600	      5.76705789	    -11.92796391	     -7.70080354	     37.33103496	     45.08628729	      0.00000000	      0.00000000	     17.20350209	    -13.03976607	      4.94030096	     47.39364453	     44.78771510	      0.00000000	      0.00000000
     46.06821429	     -3.13102518	     -2.74657391	     -3.31923482	      1.07033418	      0.93559868	      0.40804659	     34.97646554	     -6.84507975	     -4.61431709	     62.05955903	     62.05955903	     -1.18874302	    -15.95411533	      1.68681282	      9.03220789	     -3.30904061	    -12.68943998	     17.07592226	     17.07592226	     12.95362793	     -7.58594150	     -4.42178833	    -10.98436665	      5.98976463	      1.65523899	      3.67027844	    -12.25733119	     -7.74507500	     35.19522769	     45.17271293	      0.00000000	      0.00000000	     19.18042219	    -13.25337692	      4.61891103	     48.96967960	     44.87149909	      0.00000000	      0.00000000
     46.07985714	     -3.05954423	     -2.68663394	     -3.50973022	      1.06973643	      0.93558337	      0.40763881	     35.43764843	     -6.81244922	     -4.77311431	     59.34318990	     59.34318990	     -1.19084298	    -15.79148327	      1.75739257	      8.01690249	     -3.17319842	    -13.20614572	     16.52948416	     16.52948416	     13.32051509	     -6.85292099	     -4.72684192	    -11.10052513	      6.00151766	      1.24695115	      3.70907275	    -11.97739327	     -8.82931685	     28.65795418	     45.58802340	      0.00000000	      0.00000000	     20.39563141	    -14.20847376	      4.64709958	     51.49613581	     45.02788257	      0.00000000	      0.00000000
     46.09150000	     -3.03532254	     -2.65819443	     -3.64666053	      1.06923190	      0.93549384	      0.40725339	     35.70729574	     -6.76346568	     -5.05383629	     56.21431717	     56.21431717	     -1.10995791	    -15.52145778	      2.06801252	      6.97250473	     -2.99567042	    -13.41989304	     15.79684098	     15.79684098	     13.63655476	     -6.44734908	     -4.76629827	    -11.21767744	      6.11544148	      1.46710319	      1.61753802	    -12.26019377	     -9.00752453	     27.02680801	     45.66772903	      0.00000000	      0.00000000	     22.16581929	    -14.41770851	      4.26996890	     53.04704254	     45.11229808	      0.00000000	      0.00000000
